<svg id="svg" version="1.1" width="400" height="373.5015772870662" viewBox="0 0 400 373.5015772870662" xmlns="http://www.w3.org/2000/svg" xmlns:xlink="http://www.w3.org/1999/xlink" ><g id="svgg"><path id="path0" d="" stroke="none" fill="#000000" fill-rule="evenodd"></path><path id="path1" d="M112.060 33.535 C 112.525 33.625,113.198 33.621,113.556 33.528 C 113.913 33.434,113.533 33.361,112.710 33.365 C 111.888 33.369,111.595 33.446,112.060 33.535 M161.776 212.968 C 161.416 213.062,161.121 213.359,161.121 213.629 C 161.121 213.898,160.785 214.206,160.374 214.314 C 159.829 214.456,159.626 214.824,159.626 215.666 C 159.626 216.445,159.443 216.822,159.065 216.822 C 158.702 216.822,158.505 217.187,158.505 217.861 C 158.505 218.437,158.172 219.184,157.757 219.539 C 157.346 219.892,157.009 220.500,157.009 220.891 C 157.009 221.282,156.757 221.699,156.449 221.817 C 156.121 221.943,155.888 222.503,155.888 223.166 C 155.888 223.924,155.702 224.299,155.327 224.299 C 154.939 224.299,154.766 224.689,154.766 225.564 C 154.766 226.514,154.581 226.877,154.019 227.024 C 153.511 227.157,153.271 227.534,153.271 228.201 C 153.271 228.741,153.019 229.279,152.710 229.398 C 152.398 229.518,152.150 230.073,152.150 230.654 C 152.150 231.227,151.913 231.786,151.624 231.897 C 151.335 232.008,150.988 232.601,150.854 233.215 C 150.719 233.828,150.366 234.423,150.071 234.536 C 149.766 234.653,149.533 235.235,149.533 235.876 C 149.533 236.634,149.347 237.009,148.972 237.009 C 148.608 237.009,148.411 237.374,148.411 238.048 C 148.411 238.624,148.078 239.371,147.664 239.726 C 147.252 240.078,146.916 240.687,146.916 241.078 C 146.916 241.469,146.664 241.886,146.355 242.004 C 146.034 242.128,145.794 242.686,145.794 243.313 C 145.794 243.940,145.555 244.498,145.234 244.621 C 144.906 244.747,144.673 245.307,144.673 245.970 C 144.673 246.689,144.483 247.103,144.152 247.103 C 143.581 247.103,143.178 247.888,143.178 249.003 C 143.178 249.397,142.925 249.720,142.617 249.720 C 142.248 249.720,142.056 250.089,142.056 250.801 C 142.056 251.396,141.820 251.973,141.531 252.084 C 141.242 252.195,140.895 252.788,140.760 253.401 C 140.625 254.015,140.273 254.610,139.977 254.723 C 139.621 254.860,139.439 255.490,139.439 256.584 C 139.439 257.709,139.260 258.307,138.879 258.453 C 138.551 258.579,138.318 259.139,138.318 259.801 C 138.318 260.544,138.130 260.935,137.774 260.935 C 137.451 260.935,137.133 261.454,136.990 262.217 C 136.857 262.922,136.513 263.590,136.225 263.701 C 135.937 263.811,135.701 264.333,135.701 264.860 C 135.701 265.387,135.449 265.915,135.140 266.033 C 134.821 266.156,134.579 266.713,134.579 267.330 C 134.579 268.005,134.384 268.411,134.059 268.411 C 133.494 268.411,133.084 269.194,133.084 270.271 C 133.084 270.643,132.832 271.045,132.523 271.163 C 132.196 271.289,131.963 271.849,131.963 272.512 C 131.963 273.270,131.777 273.645,131.402 273.645 C 131.093 273.645,130.841 273.959,130.841 274.342 C 130.841 274.726,130.505 275.467,130.093 275.990 C 129.682 276.513,129.346 277.274,129.346 277.683 C 129.346 278.091,129.093 278.522,128.785 278.640 C 128.457 278.766,128.224 279.326,128.224 279.988 C 128.224 280.731,128.037 281.121,127.680 281.121 C 127.357 281.121,127.039 281.641,126.896 282.404 C 126.764 283.109,126.420 283.777,126.131 283.888 C 125.843 283.998,125.607 284.520,125.607 285.047 C 125.607 285.574,125.355 286.102,125.047 286.220 C 124.738 286.338,124.486 286.881,124.486 287.427 C 124.486 288.013,124.181 288.609,123.738 288.885 C 123.327 289.142,122.991 289.753,122.991 290.244 C 122.991 290.734,122.738 291.232,122.430 291.350 C 122.102 291.476,121.869 292.036,121.869 292.699 C 121.869 293.416,121.679 293.832,121.350 293.832 C 121.055 293.832,120.728 294.382,120.592 295.104 C 120.461 295.804,120.106 296.471,119.803 296.588 C 119.500 296.704,119.252 297.207,119.252 297.705 C 119.252 298.204,119.000 298.708,118.692 298.827 C 118.364 298.953,118.131 299.513,118.131 300.175 C 118.131 300.918,117.943 301.308,117.587 301.308 C 117.264 301.308,116.946 301.828,116.803 302.591 C 116.670 303.296,116.326 303.964,116.038 304.075 C 115.695 304.206,115.514 304.861,115.514 305.970 C 115.514 307.226,115.369 307.664,114.953 307.664 C 114.565 307.664,114.393 308.053,114.393 308.928 C 114.393 309.879,114.207 310.242,113.645 310.389 C 113.137 310.522,112.897 310.899,112.897 311.566 C 112.897 312.105,112.645 312.644,112.336 312.762 C 112.024 312.882,111.776 313.438,111.776 314.019 C 111.776 314.592,111.539 315.151,111.250 315.262 C 110.961 315.373,110.614 315.965,110.480 316.579 C 110.345 317.193,109.993 317.787,109.697 317.901 C 109.392 318.018,109.159 318.600,109.159 319.241 C 109.159 319.999,108.973 320.374,108.598 320.374 C 108.234 320.374,108.037 320.738,108.037 321.412 C 108.037 321.988,107.704 322.736,107.290 323.091 C 106.879 323.443,106.542 324.051,106.542 324.442 C 106.542 324.834,106.290 325.250,105.981 325.369 C 105.654 325.495,105.421 326.055,105.421 326.717 C 105.421 327.491,105.237 327.850,104.842 327.850 C 104.370 327.850,104.284 328.279,104.375 330.187 L 104.486 332.523 114.721 332.623 C 123.120 332.705,125.031 332.629,125.375 332.200 C 125.606 331.913,126.257 331.571,126.822 331.440 C 127.388 331.308,127.850 330.971,127.850 330.691 C 127.850 330.410,128.187 330.093,128.598 329.985 C 129.143 329.843,129.346 329.475,129.346 328.633 C 129.346 327.854,129.529 327.477,129.907 327.477 C 130.330 327.477,130.467 327.020,130.467 325.607 C 130.467 324.221,130.608 323.738,131.011 323.738 C 131.335 323.738,131.652 323.219,131.796 322.456 C 131.928 321.750,132.272 321.083,132.560 320.972 C 132.848 320.862,133.084 320.363,133.084 319.865 C 133.084 319.366,133.336 318.862,133.645 318.743 C 133.973 318.618,134.206 318.057,134.206 317.395 C 134.206 316.676,134.396 316.262,134.726 316.262 C 135.291 316.262,135.701 315.479,135.701 314.402 C 135.701 314.030,135.953 313.628,136.262 313.510 C 136.570 313.391,136.822 312.863,136.822 312.336 C 136.822 311.810,137.061 311.287,137.352 311.175 C 137.652 311.060,137.989 310.188,138.131 309.159 C 138.272 308.130,138.609 307.258,138.910 307.143 C 139.201 307.031,139.439 306.508,139.439 305.981 C 139.439 305.454,139.692 304.926,140.000 304.808 C 140.320 304.685,140.561 304.128,140.561 303.511 L 140.561 302.430 161.495 302.430 L 182.430 302.430 182.430 303.511 C 182.430 304.128,182.671 304.685,182.991 304.808 C 183.420 304.973,183.551 305.679,183.551 307.826 C 183.551 310.245,183.653 310.683,184.299 311.028 C 184.951 311.377,185.047 311.811,185.047 314.406 C 185.047 316.803,185.156 317.383,185.607 317.383 C 186.059 317.383,186.168 317.966,186.168 320.386 C 186.168 322.709,186.295 323.437,186.729 323.603 C 187.131 323.758,187.290 324.387,187.290 325.834 C 187.290 327.352,187.475 328.035,188.037 328.598 C 188.449 329.009,188.785 329.674,188.785 330.074 C 188.785 330.475,189.185 331.235,189.675 331.763 L 190.564 332.722 200.796 332.623 L 211.028 332.523 211.134 328.318 C 211.224 324.743,211.154 324.112,210.666 324.112 C 210.217 324.112,210.093 323.640,210.093 321.915 C 210.093 320.418,209.915 319.569,209.533 319.252 C 209.224 318.996,208.972 318.240,208.972 317.571 C 208.972 315.583,208.540 314.019,207.991 314.019 C 207.607 314.019,207.477 313.400,207.477 311.577 C 207.477 309.752,207.335 309.081,206.916 308.920 C 206.525 308.770,206.355 308.160,206.355 306.906 C 206.355 304.758,206.083 303.925,205.381 303.925 C 204.989 303.925,204.860 303.321,204.860 301.484 C 204.860 299.658,204.718 298.988,204.299 298.827 C 203.867 298.661,203.738 297.943,203.738 295.701 C 203.738 293.459,203.610 292.741,203.178 292.575 C 202.801 292.431,202.615 291.834,202.612 290.759 C 202.605 288.619,202.266 287.477,201.639 287.477 C 201.252 287.477,201.121 286.872,201.121 285.087 C 201.121 283.307,200.978 282.642,200.561 282.482 C 200.149 282.324,200.000 281.673,200.000 280.030 C 200.000 278.547,199.830 277.693,199.494 277.495 C 199.207 277.325,198.892 276.232,198.765 274.962 C 198.627 273.589,198.318 272.563,197.962 272.304 C 197.557 272.007,197.383 271.243,197.383 269.760 C 197.383 268.221,197.230 267.581,196.822 267.425 C 196.412 267.267,196.262 266.620,196.262 265.010 C 196.262 263.215,196.124 262.724,195.514 262.343 C 194.896 261.957,194.766 261.471,194.766 259.536 C 194.766 257.705,194.644 257.196,194.206 257.196 C 193.754 257.196,193.645 256.613,193.645 254.194 C 193.645 251.870,193.518 251.143,193.084 250.976 C 192.682 250.822,192.523 250.192,192.523 248.745 C 192.523 247.227,192.339 246.544,191.776 245.981 C 191.208 245.414,191.028 244.735,191.028 243.166 C 191.028 241.673,190.872 241.038,190.467 240.883 C 190.058 240.726,189.907 240.083,189.907 238.510 C 189.907 237.049,189.726 236.203,189.346 235.888 C 189.037 235.632,188.783 234.980,188.781 234.440 C 188.773 232.448,188.309 230.654,187.802 230.654 C 187.422 230.654,187.290 230.038,187.290 228.264 C 187.290 226.485,187.147 225.819,186.729 225.659 C 186.335 225.508,186.168 224.894,186.168 223.594 C 186.168 221.395,185.900 220.561,185.194 220.561 C 184.802 220.561,184.673 219.957,184.673 218.119 C 184.673 216.294,184.531 215.623,184.112 215.462 C 183.804 215.344,183.551 214.850,183.551 214.366 C 183.551 213.877,183.229 213.312,182.828 213.097 C 182.119 212.718,163.178 212.601,161.776 212.968 M236.168 212.964 C 235.808 213.060,235.514 213.379,235.514 213.672 C 235.514 213.966,235.280 214.206,234.993 214.206 C 234.158 214.206,234.019 215.092,234.019 220.416 C 234.019 224.541,233.918 225.483,233.458 225.659 C 233.001 225.835,232.897 226.740,232.897 230.560 C 232.897 234.590,232.806 235.311,232.243 235.723 C 231.694 236.124,231.568 236.953,231.457 240.890 C 231.361 244.322,231.186 245.695,230.803 246.013 C 230.407 246.342,230.280 247.568,230.280 251.086 C 230.280 254.864,230.176 255.764,229.720 255.940 C 229.261 256.115,229.159 257.033,229.159 260.956 C 229.159 265.140,229.075 265.804,228.505 266.123 C 227.947 266.434,227.832 267.182,227.726 271.212 C 227.630 274.857,227.481 275.981,227.072 276.138 C 226.648 276.301,226.542 277.450,226.542 281.909 C 226.542 286.609,226.455 287.477,225.981 287.477 C 225.511 287.477,225.421 288.287,225.421 292.523 C 225.421 296.588,225.319 297.570,224.900 297.570 C 224.079 297.570,223.925 298.451,223.925 303.168 C 223.925 306.748,223.819 307.624,223.364 307.799 C 222.906 307.975,222.804 308.900,222.804 312.885 C 222.804 316.760,222.699 317.757,222.292 317.757 C 221.616 317.757,221.318 319.707,221.313 324.166 C 221.309 327.074,221.197 327.813,220.729 327.993 C 220.279 328.166,220.174 328.696,220.262 330.369 L 220.374 332.523 231.450 332.622 L 242.527 332.721 242.754 331.875 C 242.878 331.409,242.983 330.583,242.986 330.040 C 242.988 329.497,243.243 328.955,243.551 328.837 C 244.010 328.661,244.112 327.740,244.112 323.790 C 244.112 319.840,244.214 318.919,244.673 318.743 C 245.131 318.568,245.234 317.652,245.234 313.747 C 245.234 309.370,245.297 308.925,245.981 308.498 C 246.664 308.072,246.729 307.626,246.729 303.401 C 246.729 299.631,246.833 298.732,247.290 298.556 C 247.734 298.386,247.850 297.603,247.850 294.797 L 247.850 291.252 257.040 291.140 C 265.282 291.040,266.279 290.961,266.707 290.374 C 267.118 289.811,267.840 289.720,271.870 289.720 C 275.690 289.720,276.595 289.616,276.771 289.159 C 276.929 288.746,277.583 288.598,279.252 288.598 C 280.908 288.598,281.576 288.449,281.731 288.045 C 281.858 287.715,282.681 287.395,283.775 287.250 C 284.960 287.092,285.607 286.825,285.607 286.494 C 285.607 286.172,286.030 285.981,286.741 285.981 C 287.403 285.981,287.963 285.748,288.089 285.421 C 288.207 285.112,288.705 284.860,289.196 284.860 C 289.686 284.860,290.297 284.523,290.554 284.112 C 290.838 283.658,291.426 283.364,292.053 283.364 C 292.682 283.364,293.084 283.163,293.084 282.847 C 293.084 282.563,293.421 282.242,293.832 282.135 C 294.243 282.027,294.579 281.671,294.579 281.343 C 294.579 281.016,294.832 280.748,295.140 280.748 C 295.449 280.748,295.701 280.495,295.701 280.187 C 295.701 279.879,295.862 279.626,296.058 279.626 C 296.254 279.626,296.843 279.198,297.366 278.675 C 297.890 278.151,298.318 277.562,298.318 277.366 C 298.318 277.170,298.570 277.009,298.879 277.009 C 299.187 277.009,299.439 276.757,299.439 276.449 C 299.439 276.140,299.630 275.888,299.864 275.888 C 300.363 275.888,302.056 274.141,302.056 273.626 C 302.056 273.431,302.301 273.271,302.600 273.271 C 302.923 273.271,303.241 272.751,303.384 271.989 C 303.517 271.283,303.861 270.616,304.149 270.505 C 304.437 270.394,304.673 269.896,304.673 269.398 C 304.673 268.899,304.925 268.394,305.234 268.276 C 305.561 268.150,305.794 267.590,305.794 266.928 C 305.794 266.208,305.985 265.794,306.315 265.794 C 306.963 265.794,307.290 264.982,307.290 263.374 C 307.290 262.618,307.508 262.052,307.850 261.921 C 308.270 261.760,308.411 261.090,308.411 259.264 C 308.411 257.442,308.542 256.822,308.925 256.822 C 309.731 256.822,309.907 255.045,309.907 246.916 C 309.907 238.786,309.731 237.009,308.925 237.009 C 308.542 237.009,308.411 236.390,308.411 234.568 C 308.411 232.742,308.270 232.072,307.850 231.911 C 307.542 231.793,307.290 231.299,307.290 230.814 C 307.290 230.315,306.965 229.759,306.542 229.533 C 306.052 229.271,305.794 228.750,305.794 228.024 C 305.794 227.288,305.606 226.916,305.234 226.916 C 304.877 226.916,304.673 226.557,304.673 225.931 C 304.673 224.986,303.187 223.178,302.411 223.178 C 302.216 223.178,302.056 222.991,302.056 222.763 C 302.056 222.189,300.476 220.575,299.907 220.567 C 299.650 220.564,299.439 220.304,299.439 219.991 C 299.439 219.653,298.969 219.327,298.286 219.190 C 297.651 219.063,297.044 218.731,296.937 218.452 C 296.830 218.172,296.508 217.944,296.222 217.944 C 295.935 217.944,295.701 217.707,295.701 217.418 C 295.701 217.072,295.072 216.806,293.860 216.639 C 292.810 216.495,291.931 216.159,291.815 215.857 C 291.702 215.561,291.112 215.327,290.479 215.327 C 289.721 215.327,289.346 215.141,289.346 214.766 C 289.346 214.315,288.766 214.206,286.374 214.206 C 283.932 214.206,283.336 214.089,283.036 213.551 C 282.683 212.922,238.400 212.366,236.168 212.964 M328.131 213.114 C 327.663 213.387,327.477 213.969,327.477 215.159 C 327.477 216.388,327.330 216.822,326.916 216.822 C 326.445 216.822,326.355 217.632,326.355 221.869 C 326.355 225.934,326.254 226.916,325.834 226.916 C 325.000 226.916,324.860 227.802,324.860 233.075 C 324.860 237.153,324.759 238.090,324.299 238.266 C 323.841 238.442,323.738 239.352,323.738 243.218 C 323.738 247.235,323.642 248.025,323.106 248.417 C 322.589 248.795,322.444 249.718,322.310 253.487 C 322.195 256.705,321.991 258.249,321.633 258.607 C 321.255 258.985,321.121 260.324,321.121 263.725 C 321.121 267.475,321.017 268.371,320.561 268.546 C 320.103 268.722,320.000 269.633,320.000 273.498 C 320.000 277.579,319.909 278.302,319.346 278.713 C 318.797 279.113,318.671 279.934,318.566 283.801 C 318.471 287.284,318.311 288.484,317.912 288.710 C 317.499 288.944,317.383 290.062,317.383 293.810 C 317.383 297.733,317.281 298.651,316.822 298.827 C 316.358 299.005,316.262 300.011,316.262 304.661 C 316.262 309.215,316.163 310.280,315.741 310.280 C 314.920 310.280,314.766 311.161,314.766 315.878 C 314.766 319.491,314.663 320.334,314.196 320.513 C 313.712 320.698,313.641 321.624,313.729 326.627 L 313.832 332.523 324.064 332.623 L 334.296 332.722 335.185 331.763 C 336.023 330.859,336.075 330.531,336.075 326.162 C 336.075 321.904,336.136 321.489,336.822 321.121 C 337.511 320.753,337.570 320.339,337.570 315.875 C 337.570 311.816,337.661 311.028,338.131 311.028 C 338.602 311.028,338.692 310.218,338.692 305.981 C 338.692 301.934,338.794 300.935,339.209 300.935 C 339.969 300.935,340.176 299.718,340.182 295.234 L 340.187 291.215 349.252 291.210 C 358.726 291.205,360.000 291.089,360.000 290.237 C 360.000 289.826,360.890 289.720,364.311 289.720 C 367.798 289.720,368.663 289.612,368.837 289.159 C 368.995 288.748,369.643 288.598,371.267 288.598 C 372.876 288.598,373.539 288.447,373.694 288.045 C 373.821 287.714,374.651 287.394,375.770 287.245 C 376.801 287.108,377.721 286.771,377.829 286.490 C 377.936 286.210,378.511 285.981,379.105 285.981 C 379.818 285.981,380.187 285.790,380.187 285.421 C 380.187 285.112,380.510 284.860,380.904 284.860 C 382.018 284.860,382.804 284.457,382.804 283.885 C 382.804 283.571,383.197 283.364,383.794 283.364 C 384.495 283.364,385.310 282.817,386.577 281.495 C 387.812 280.207,388.666 279.626,389.325 279.626 C 389.850 279.626,390.280 279.414,390.280 279.155 C 390.280 278.896,390.617 278.474,391.028 278.218 C 391.439 277.961,391.776 277.405,391.776 276.982 C 391.776 276.551,392.598 275.412,393.645 274.393 C 394.929 273.142,395.514 272.272,395.514 271.613 C 395.514 271.010,395.722 270.654,396.075 270.654 C 396.438 270.654,396.636 270.290,396.636 269.623 C 396.636 268.996,396.929 268.408,397.383 268.124 C 397.794 267.867,398.131 267.256,398.131 266.766 C 398.131 266.276,398.383 265.778,398.692 265.659 C 399.076 265.512,399.252 264.911,399.252 263.750 C 399.252 262.818,399.421 262.056,399.626 262.056 C 399.869 262.056,400.000 256.573,400.000 246.355 C 400.000 236.137,399.869 230.654,399.626 230.654 C 399.421 230.654,399.252 230.144,399.252 229.521 C 399.252 228.859,399.019 228.298,398.692 228.173 C 398.383 228.054,398.131 227.556,398.131 227.066 C 398.131 226.576,397.794 225.964,397.383 225.708 C 396.972 225.451,396.636 225.029,396.636 224.770 C 396.636 224.511,396.383 224.299,396.075 224.299 C 395.766 224.299,395.514 224.047,395.514 223.738 C 395.514 223.430,395.353 223.178,395.157 223.178 C 394.693 223.178,392.897 221.381,392.897 220.918 C 392.897 220.721,392.685 220.561,392.426 220.561 C 392.167 220.561,391.745 220.224,391.489 219.813 C 391.232 219.402,390.645 219.058,390.184 219.050 C 389.723 219.041,388.933 218.536,388.429 217.928 C 387.924 217.320,387.208 216.822,386.836 216.822 C 386.465 216.822,385.873 216.486,385.521 216.075 C 385.071 215.549,384.418 215.327,383.321 215.327 C 382.280 215.327,381.691 215.141,381.547 214.766 C 381.386 214.347,380.716 214.206,378.890 214.206 C 377.061 214.206,376.449 214.076,376.449 213.688 C 376.449 213.404,376.070 213.070,375.607 212.946 C 374.098 212.541,328.839 212.702,328.131 213.114 M269.533 230.801 C 269.533 231.553,270.384 231.776,273.262 231.776 C 275.180 231.776,275.861 231.914,276.023 232.336 C 276.171 232.721,276.771 232.897,277.932 232.897 C 279.189 232.897,279.626 233.042,279.626 233.458 C 279.626 233.766,279.867 234.019,280.162 234.019 C 280.456 234.019,280.804 234.355,280.935 234.766 C 281.065 235.178,281.413 235.514,281.707 235.514 C 282.002 235.514,282.243 235.766,282.243 236.075 C 282.243 236.383,282.495 236.636,282.804 236.636 C 283.112 236.636,283.364 236.870,283.364 237.156 C 283.364 237.443,283.593 237.765,283.872 237.872 C 284.151 237.979,284.483 238.586,284.610 239.220 C 284.747 239.904,285.073 240.374,285.411 240.374 C 285.797 240.374,285.981 240.741,285.981 241.507 C 285.981 242.170,286.214 242.730,286.542 242.855 C 287.003 243.032,287.103 243.993,287.103 248.264 C 287.103 252.632,287.014 253.458,286.542 253.458 C 286.118 253.458,285.981 253.915,285.981 255.327 C 285.981 256.676,285.836 257.196,285.461 257.196 C 284.889 257.196,284.486 257.982,284.486 259.096 C 284.486 259.490,284.234 259.813,283.925 259.813 C 283.556 259.813,283.364 260.182,283.364 260.895 C 283.364 261.511,283.123 262.069,282.804 262.191 C 282.495 262.310,282.243 262.664,282.243 262.979 C 282.243 263.294,282.049 263.551,281.811 263.551 C 281.302 263.551,278.505 266.411,278.505 266.932 C 278.505 267.129,278.247 267.290,277.932 267.290 C 277.617 267.290,277.263 267.542,277.145 267.850 C 277.026 268.159,276.547 268.411,276.081 268.411 C 275.614 268.411,275.031 268.653,274.786 268.948 C 274.541 269.243,273.848 269.593,273.245 269.725 C 272.643 269.858,272.150 270.205,272.150 270.497 C 272.150 270.885,271.646 271.028,270.280 271.028 C 268.868 271.028,268.411 271.165,268.411 271.589 C 268.411 272.072,267.165 272.150,259.439 272.150 L 250.467 272.150 250.467 269.533 C 250.467 267.456,250.583 266.916,251.028 266.916 C 251.499 266.916,251.589 266.106,251.589 261.869 C 251.589 257.822,251.691 256.822,252.106 256.822 C 252.846 256.822,253.073 255.618,253.079 251.671 C 253.083 248.935,253.203 248.155,253.645 247.986 C 254.109 247.808,254.206 246.807,254.206 242.203 C 254.206 237.503,254.293 236.636,254.766 236.636 C 255.221 236.636,255.327 236.033,255.327 233.458 L 255.327 230.280 262.430 230.280 C 268.252 230.280,269.533 230.374,269.533 230.801 M362.991 231.028 C 363.339 231.680,363.773 231.776,366.368 231.776 C 368.766 231.776,369.346 231.885,369.346 232.336 C 369.346 232.689,369.702 232.897,370.305 232.897 C 370.918 232.897,371.712 233.371,372.499 234.206 C 373.178 234.925,374.092 235.514,374.530 235.514 C 375.066 235.514,375.327 235.748,375.327 236.230 C 375.327 236.623,375.916 237.551,376.636 238.292 C 377.385 239.065,377.944 240.019,377.944 240.528 C 377.944 241.016,378.196 241.512,378.505 241.631 C 378.973 241.810,379.065 242.894,379.065 248.173 C 379.065 253.452,378.973 254.535,378.505 254.715 C 378.123 254.861,377.944 255.458,377.944 256.584 C 377.944 257.709,377.765 258.307,377.383 258.453 C 377.055 258.579,376.822 259.139,376.822 259.801 C 376.822 260.425,376.663 260.935,376.468 260.935 C 375.781 260.935,374.206 262.712,374.206 263.486 C 374.206 264.577,371.385 267.290,370.251 267.290 C 369.696 267.290,369.346 267.506,369.346 267.850 C 369.346 268.226,368.971 268.411,368.213 268.411 C 367.585 268.411,366.990 268.645,366.878 268.935 C 366.768 269.223,366.100 269.567,365.395 269.700 C 364.632 269.843,364.112 270.161,364.112 270.484 C 364.112 270.880,363.651 271.028,362.418 271.028 C 361.257 271.028,360.656 271.204,360.509 271.589 C 360.326 272.066,358.957 272.150,351.362 272.150 L 342.430 272.150 342.430 270.841 C 342.430 269.976,342.605 269.533,342.947 269.533 C 343.712 269.533,343.914 268.314,343.920 263.685 C 343.924 260.330,344.034 259.477,344.486 259.304 C 344.944 259.128,345.047 258.207,345.047 254.257 C 345.047 250.307,345.149 249.387,345.607 249.211 C 346.070 249.033,346.168 248.048,346.168 243.576 C 346.168 238.540,346.221 238.129,346.916 237.757 C 347.583 237.400,347.664 236.974,347.664 233.819 L 347.664 230.280 355.127 230.280 C 362.208 230.280,362.611 230.319,362.991 231.028 M170.239 249.159 C 170.526 249.379,170.809 250.677,170.926 252.308 C 171.066 254.263,171.304 255.215,171.730 255.527 C 172.198 255.869,172.336 256.625,172.336 258.838 C 172.336 261.042,172.466 261.755,172.897 261.921 C 173.326 262.085,173.458 262.788,173.458 264.897 C 173.458 267.252,173.568 267.726,174.206 268.124 C 174.847 268.525,174.953 268.996,174.953 271.452 C 174.953 273.650,175.083 274.362,175.514 274.528 C 175.927 274.686,176.075 275.340,176.075 277.009 C 176.075 278.679,176.222 279.332,176.636 279.491 C 177.038 279.645,177.196 280.275,177.196 281.722 L 177.196 283.738 163.832 283.695 C 156.481 283.671,150.756 283.576,151.109 283.483 C 151.485 283.384,151.849 282.793,151.987 282.057 C 152.117 281.365,152.459 280.709,152.747 280.598 C 153.035 280.488,153.271 279.989,153.271 279.491 C 153.271 278.993,153.523 278.488,153.832 278.369 C 154.160 278.244,154.393 277.684,154.393 277.021 C 154.393 276.302,154.583 275.888,154.913 275.888 C 155.477 275.888,155.888 275.105,155.888 274.028 C 155.888 273.656,156.140 273.254,156.449 273.136 C 156.776 273.010,157.009 272.450,157.009 271.787 C 157.009 271.041,157.196 270.654,157.557 270.654 C 157.931 270.654,158.183 270.069,158.350 268.808 C 158.487 267.774,158.822 266.874,159.111 266.763 C 159.394 266.655,159.626 266.056,159.626 265.432 C 159.626 264.674,159.812 264.299,160.187 264.299 C 160.536 264.299,160.748 263.946,160.748 263.364 C 160.748 262.850,161.084 262.093,161.495 261.682 C 161.907 261.271,162.243 260.616,162.243 260.227 C 162.243 259.838,162.495 259.422,162.804 259.304 C 163.132 259.178,163.364 258.618,163.364 257.956 C 163.364 257.198,163.550 256.822,163.925 256.822 C 164.349 256.822,164.486 256.366,164.486 254.953 C 164.486 253.605,164.631 253.084,165.007 253.084 C 165.578 253.084,165.981 252.299,165.981 251.184 C 165.981 250.790,166.234 250.467,166.542 250.467 C 166.917 250.467,167.103 250.092,167.103 249.334 C 167.103 248.672,167.336 248.111,167.664 247.986 C 167.972 247.867,168.224 247.486,168.224 247.139 C 168.224 245.163,169.533 244.883,169.641 246.836 C 169.701 247.908,169.970 248.953,170.239 249.159 " stroke="none" fill="#ffffff" fill-rule="evenodd"></path><path id="path2" d="" stroke="none" fill="#7f0000" fill-rule="evenodd"></path><path id="path3" d="M98.411 200.258 C 98.771 200.352,99.360 200.352,99.720 200.258 C 100.079 200.164,99.785 200.087,99.065 200.087 C 98.346 200.087,98.051 200.164,98.411 200.258 " stroke="none" fill="#ff0000" fill-rule="evenodd"></path><path id="path4" d="M25.794 4.673 C 25.794 8.577,25.702 9.346,25.234 9.346 C 24.763 9.346,24.673 10.156,24.673 14.393 C 24.673 18.457,24.572 19.439,24.152 19.439 C 23.331 19.439,23.178 20.320,23.178 25.037 C 23.178 28.617,23.071 29.493,22.617 29.668 C 22.153 29.846,22.056 30.852,22.056 35.502 C 22.056 40.248,21.969 41.121,21.495 41.121 C 21.025 41.121,20.935 41.931,20.935 46.168 C 20.935 50.966,20.898 51.215,20.187 51.215 C 19.476 51.215,19.439 51.464,19.439 56.262 C 19.439 60.498,19.349 61.308,18.879 61.308 C 18.408 61.308,18.318 62.118,18.318 66.355 C 18.318 70.592,18.228 71.402,17.757 71.402 C 17.286 71.402,17.196 72.212,17.196 76.449 C 17.196 81.246,17.159 81.495,16.449 81.495 C 15.738 81.495,15.701 81.745,15.701 86.542 C 15.701 90.779,15.611 91.589,15.140 91.589 C 14.669 91.589,14.579 92.399,14.579 96.636 C 14.579 100.700,14.478 101.682,14.059 101.682 C 13.224 101.682,13.084 102.568,13.084 107.841 C 13.084 111.919,12.983 112.856,12.523 113.032 C 12.065 113.208,11.963 114.129,11.963 118.079 C 11.963 122.029,11.860 122.950,11.402 123.126 C 10.943 123.302,10.841 124.222,10.841 128.169 C 10.841 132.683,10.792 133.010,10.093 133.192 C 9.394 133.375,9.346 133.702,9.346 138.294 C 9.346 142.311,9.244 143.240,8.785 143.416 C 8.325 143.593,8.224 144.533,8.224 148.638 C 8.224 152.839,8.134 153.645,7.664 153.645 C 7.193 153.645,7.103 154.455,7.103 158.692 C 7.103 163.489,7.066 163.738,6.355 163.738 C 5.644 163.738,5.607 163.988,5.607 168.785 C 5.607 173.022,5.517 173.832,5.047 173.832 C 4.573 173.832,4.486 174.699,4.486 179.396 C 4.486 184.645,4.444 184.971,3.738 185.155 C 3.039 185.338,2.991 185.665,2.991 190.245 C 2.991 194.347,2.900 195.140,2.430 195.140 C 1.959 195.140,1.869 195.950,1.869 200.187 C 1.869 204.424,1.779 205.234,1.308 205.234 C 0.838 205.234,0.748 206.044,0.748 210.280 C 0.748 213.396,0.605 215.327,0.374 215.327 C 0.134 215.327,0.000 218.941,0.000 225.421 L 0.000 235.514 23.738 235.514 L 47.477 235.514 47.477 238.692 C 47.477 241.620,47.418 241.869,46.729 241.869 C 46.015 241.869,45.981 242.118,45.981 247.437 C 45.981 252.041,45.884 253.041,45.421 253.219 C 44.962 253.395,44.860 254.321,44.860 258.306 C 44.860 262.221,44.758 263.178,44.339 263.178 C 43.518 263.178,43.364 264.058,43.364 268.776 C 43.364 272.356,43.258 273.232,42.804 273.406 C 42.345 273.582,42.243 274.503,42.243 278.453 C 42.243 282.403,42.141 283.324,41.682 283.500 C 41.222 283.676,41.121 284.622,41.121 288.773 C 41.121 293.583,41.085 293.832,40.374 293.832 C 39.663 293.832,39.626 294.081,39.626 298.879 C 39.626 303.115,39.536 303.925,39.065 303.925 C 38.595 303.925,38.505 304.735,38.505 308.972 C 38.505 313.209,38.415 314.019,37.944 314.019 C 37.470 314.019,37.383 314.891,37.383 319.626 C 37.383 324.984,37.350 325.234,36.636 325.234 C 35.925 325.234,35.888 325.483,35.888 330.280 C 35.888 334.517,35.798 335.327,35.327 335.327 C 34.856 335.327,34.766 336.137,34.766 340.374 C 34.766 344.438,34.665 345.421,34.246 345.421 C 33.423 345.421,33.271 346.301,33.271 351.059 C 33.271 354.770,33.177 355.514,32.710 355.514 C 32.240 355.514,32.150 356.324,32.150 360.561 C 32.150 364.798,32.060 365.607,31.589 365.607 C 31.124 365.607,31.028 366.314,31.028 369.720 L 31.028 373.832 206.916 373.832 L 382.804 373.832 382.804 371.589 C 382.804 369.595,382.887 369.346,383.551 369.346 C 384.262 369.346,384.299 369.097,384.299 364.299 C 384.299 360.062,384.389 359.252,384.860 359.252 C 385.331 359.252,385.421 358.442,385.421 354.206 C 385.421 350.141,385.522 349.159,385.941 349.159 C 386.694 349.159,386.916 348.307,386.916 345.421 C 386.916 344.015,386.814 342.599,386.689 342.274 C 386.483 341.736,372.448 341.682,231.362 341.682 L 76.262 341.682 76.262 336.679 C 76.262 331.990,76.309 331.664,77.009 331.480 C 77.709 331.298,77.757 330.971,77.757 326.390 C 77.757 322.288,77.848 321.495,78.318 321.495 C 78.792 321.495,78.879 320.602,78.879 315.701 C 78.879 310.800,78.965 309.907,79.439 309.907 C 79.910 309.907,80.000 309.097,80.000 304.860 C 80.000 300.062,80.037 299.813,80.748 299.813 C 81.458 299.813,81.495 299.564,81.495 294.766 C 81.495 290.530,81.585 289.720,82.056 289.720 C 82.527 289.720,82.617 288.910,82.617 284.673 C 82.617 280.436,82.707 279.626,83.178 279.626 C 83.648 279.626,83.738 278.816,83.738 274.579 C 83.738 269.782,83.775 269.533,84.486 269.533 C 85.197 269.533,85.234 269.283,85.234 264.486 C 85.234 260.249,85.324 259.439,85.794 259.439 C 86.265 259.439,86.355 258.634,86.355 254.436 C 86.355 249.747,86.402 249.421,87.103 249.237 C 87.807 249.053,87.850 248.728,87.850 243.586 C 87.850 238.986,87.938 238.131,88.411 238.131 C 88.803 238.131,88.972 237.736,88.972 236.822 L 88.972 235.514 92.150 235.514 C 94.725 235.514,95.327 235.408,95.327 234.953 C 95.327 234.487,96.054 234.393,99.626 234.393 C 103.676 234.393,103.925 234.349,103.925 233.645 C 103.925 232.956,104.174 232.897,107.103 232.897 C 109.678 232.897,110.280 232.791,110.280 232.336 C 110.280 231.913,110.737 231.776,112.150 231.776 C 113.562 231.776,114.019 231.639,114.019 231.215 C 114.019 230.812,114.431 230.654,115.483 230.654 C 117.310 230.654,118.131 230.352,118.131 229.680 C 118.131 229.304,118.652 229.159,120.000 229.159 C 121.412 229.159,121.869 229.022,121.869 228.598 C 121.869 228.224,122.243 228.037,122.991 228.037 C 123.863 228.037,124.112 227.871,124.112 227.290 C 124.112 226.684,124.361 226.542,125.421 226.542 C 126.334 226.542,126.729 226.373,126.729 225.981 C 126.729 225.590,127.124 225.421,128.037 225.421 C 128.951 225.421,129.346 225.251,129.346 224.860 C 129.346 224.482,129.724 224.299,130.502 224.299 C 131.344 224.299,131.712 224.096,131.854 223.551 C 131.993 223.022,132.364 222.804,133.128 222.804 C 133.837 222.804,134.206 222.612,134.206 222.243 C 134.206 221.931,134.538 221.682,134.953 221.682 C 135.364 221.682,135.701 221.438,135.701 221.138 C 135.701 220.813,136.226 220.496,137.009 220.349 C 137.759 220.209,138.318 219.882,138.318 219.585 C 138.318 219.299,138.570 219.065,138.879 219.065 C 139.187 219.065,139.439 218.813,139.439 218.505 C 139.439 218.127,139.817 217.944,140.596 217.944 C 141.438 217.944,141.805 217.741,141.948 217.196 C 142.055 216.785,142.376 216.449,142.660 216.449 C 142.945 216.449,143.178 216.196,143.178 215.888 C 143.178 215.579,143.430 215.327,143.738 215.327 C 144.047 215.327,144.299 215.075,144.299 214.766 C 144.299 214.458,144.567 214.206,144.895 214.206 C 145.222 214.206,145.579 213.869,145.686 213.458 C 145.794 213.047,146.114 212.710,146.399 212.710 C 146.683 212.710,146.916 212.458,146.916 212.150 C 146.916 211.841,147.184 211.589,147.512 211.589 C 147.839 211.589,148.195 211.252,148.303 210.841 C 148.410 210.430,148.731 210.093,149.016 210.093 C 149.300 210.093,149.533 209.841,149.533 209.533 C 149.533 209.224,149.785 208.972,150.093 208.972 C 150.402 208.972,150.654 208.720,150.654 208.411 C 150.654 208.103,150.922 207.850,151.250 207.850 C 151.578 207.850,151.934 207.514,152.041 207.103 C 152.149 206.692,152.469 206.355,152.754 206.355 C 153.079 206.355,153.271 205.939,153.271 205.234 C 153.271 204.486,153.458 204.112,153.832 204.112 C 154.143 204.112,154.393 203.780,154.393 203.364 C 154.393 202.866,154.642 202.617,155.140 202.617 C 155.745 202.617,155.888 202.368,155.888 201.308 C 155.888 200.395,156.057 200.000,156.449 200.000 C 156.757 200.000,157.009 199.767,157.009 199.483 C 157.009 199.198,157.346 198.878,157.757 198.770 C 158.301 198.628,158.505 198.260,158.505 197.418 C 158.505 196.639,158.688 196.262,159.065 196.262 C 159.435 196.262,159.626 195.892,159.626 195.180 C 159.626 194.564,159.867 194.006,160.187 193.884 C 160.508 193.760,160.748 193.202,160.748 192.579 C 160.748 191.803,160.963 191.433,161.495 191.294 C 162.106 191.134,162.243 190.784,162.243 189.381 C 162.243 188.104,162.387 187.664,162.804 187.664 C 163.226 187.664,163.364 187.211,163.364 185.834 C 163.364 184.553,163.533 183.941,163.925 183.790 C 164.344 183.629,164.486 182.959,164.486 181.133 C 164.486 178.941,164.562 178.692,165.234 178.692 C 165.923 178.692,165.981 178.442,165.981 175.514 C 165.981 172.939,166.088 172.336,166.542 172.336 C 167.029 172.336,167.103 170.758,167.103 160.374 C 167.103 149.990,167.029 148.411,166.542 148.411 C 166.102 148.411,165.981 147.895,165.981 146.007 C 165.981 143.930,165.879 143.569,165.234 143.364 C 164.619 143.169,164.486 142.799,164.486 141.283 C 164.486 139.893,164.348 139.439,163.925 139.439 C 163.502 139.439,163.364 138.982,163.364 137.570 C 163.364 136.158,163.227 135.701,162.804 135.701 C 162.426 135.701,162.243 135.323,162.243 134.544 C 162.243 133.702,162.040 133.335,161.495 133.192 C 161.084 133.085,160.748 132.764,160.748 132.480 C 160.748 132.195,160.495 131.963,160.187 131.963 C 159.879 131.963,159.626 131.710,159.626 131.402 C 159.626 131.093,159.374 130.841,159.065 130.841 C 158.688 130.841,158.505 130.463,158.505 129.685 C 158.505 128.843,158.301 128.475,157.757 128.333 C 157.346 128.225,157.009 127.904,157.009 127.620 C 157.009 127.336,156.757 127.103,156.449 127.103 C 156.137 127.103,155.888 126.771,155.888 126.355 C 155.888 125.857,155.639 125.607,155.140 125.607 C 154.725 125.607,154.393 125.358,154.393 125.047 C 154.393 124.738,154.140 124.486,153.832 124.486 C 153.523 124.486,153.271 124.228,153.271 123.914 C 153.271 123.599,153.019 123.244,152.710 123.126 C 152.402 123.007,152.150 122.676,152.150 122.390 C 152.150 122.044,151.710 121.869,150.841 121.869 C 149.927 121.869,149.533 121.700,149.533 121.308 C 149.533 121.000,149.300 120.748,149.016 120.748 C 148.731 120.748,148.410 120.411,148.303 120.000 C 148.161 119.456,147.793 119.252,146.951 119.252 C 146.172 119.252,145.794 119.069,145.794 118.692 C 145.794 118.300,145.400 118.131,144.486 118.131 C 143.572 118.131,143.178 117.962,143.178 117.570 C 143.178 117.178,142.783 117.009,141.869 117.009 C 140.810 117.009,140.561 116.867,140.561 116.262 C 140.561 115.686,140.312 115.514,139.479 115.514 C 138.863 115.514,138.305 115.273,138.183 114.953 C 138.022 114.534,137.351 114.393,135.526 114.393 C 133.333 114.393,133.084 114.316,133.084 113.645 C 133.084 112.997,133.333 112.897,134.953 112.897 C 136.366 112.897,136.822 112.760,136.822 112.336 C 136.822 111.945,137.217 111.776,138.131 111.776 C 139.045 111.776,139.439 111.607,139.439 111.215 C 139.439 110.837,139.817 110.654,140.596 110.654 C 141.438 110.654,141.805 110.451,141.948 109.907 C 142.055 109.495,142.376 109.159,142.660 109.159 C 142.945 109.159,143.178 108.907,143.178 108.598 C 143.178 108.206,143.572 108.037,144.486 108.037 C 145.545 108.037,145.794 107.895,145.794 107.290 C 145.794 106.684,146.044 106.542,147.103 106.542 C 148.017 106.542,148.411 106.373,148.411 105.981 C 148.411 105.673,148.664 105.421,148.972 105.421 C 149.280 105.421,149.533 105.168,149.533 104.860 C 149.533 104.551,149.785 104.299,150.093 104.299 C 150.405 104.299,150.654 103.967,150.654 103.551 C 150.654 103.053,150.903 102.804,151.402 102.804 C 151.817 102.804,152.150 102.555,152.150 102.243 C 152.150 101.869,152.523 101.682,153.271 101.682 C 153.977 101.682,154.393 101.490,154.393 101.165 C 154.393 100.881,154.729 100.560,155.140 100.452 C 155.551 100.345,155.888 99.989,155.888 99.661 C 155.888 99.334,156.140 99.065,156.449 99.065 C 156.757 99.065,157.009 98.833,157.009 98.548 C 157.009 98.264,157.346 97.943,157.757 97.836 C 158.168 97.728,158.505 97.372,158.505 97.044 C 158.505 96.717,158.757 96.449,159.065 96.449 C 159.439 96.449,159.626 96.075,159.626 95.327 C 159.626 94.579,159.813 94.206,160.187 94.206 C 160.498 94.206,160.748 93.873,160.748 93.458 C 160.748 92.960,160.997 92.710,161.495 92.710 C 161.911 92.710,162.243 92.461,162.243 92.150 C 162.243 91.841,162.495 91.589,162.804 91.589 C 163.195 91.589,163.364 91.194,163.364 90.280 C 163.364 89.367,163.534 88.972,163.925 88.972 C 164.234 88.972,164.486 88.720,164.486 88.411 C 164.486 88.100,164.818 87.850,165.234 87.850 C 165.839 87.850,165.981 87.601,165.981 86.542 C 165.981 85.628,166.150 85.234,166.542 85.234 C 166.934 85.234,167.103 84.839,167.103 83.925 C 167.103 82.866,167.245 82.617,167.850 82.617 C 168.456 82.617,168.598 82.368,168.598 81.308 C 168.598 80.395,168.767 80.000,169.159 80.000 C 169.583 80.000,169.720 79.543,169.720 78.131 C 169.720 76.719,169.857 76.262,170.280 76.262 C 170.720 76.262,170.841 75.747,170.841 73.875 C 170.841 71.803,170.940 71.463,171.589 71.294 C 172.241 71.123,172.336 70.784,172.336 68.633 C 172.336 66.691,172.455 66.168,172.897 66.168 C 173.385 66.168,173.458 64.464,173.458 53.072 C 173.458 41.776,173.381 39.947,172.897 39.761 C 172.480 39.601,172.336 38.936,172.336 37.156 C 172.336 35.016,172.258 34.766,171.589 34.766 C 170.941 34.766,170.841 34.517,170.841 32.897 C 170.841 31.485,170.704 31.028,170.280 31.028 C 169.889 31.028,169.720 30.633,169.720 29.720 C 169.720 28.806,169.551 28.411,169.159 28.411 C 168.781 28.411,168.598 28.033,168.598 27.255 C 168.598 26.413,168.395 26.045,167.850 25.903 C 167.321 25.764,167.103 25.393,167.103 24.629 C 167.103 23.920,166.911 23.551,166.542 23.551 C 166.231 23.551,165.981 23.219,165.981 22.804 C 165.981 22.305,165.732 22.056,165.234 22.056 C 164.628 22.056,164.486 21.807,164.486 20.748 C 164.486 19.834,164.317 19.439,163.925 19.439 C 163.617 19.439,163.364 19.187,163.364 18.879 C 163.364 18.570,163.112 18.318,162.804 18.318 C 162.495 18.318,162.243 18.065,162.243 17.757 C 162.243 17.445,161.911 17.196,161.495 17.196 C 160.997 17.196,160.748 16.947,160.748 16.449 C 160.748 16.033,160.498 15.701,160.187 15.701 C 159.879 15.701,159.626 15.449,159.626 15.140 C 159.626 14.832,159.374 14.579,159.065 14.579 C 158.757 14.579,158.505 14.327,158.505 14.019 C 158.505 13.707,158.172 13.458,157.757 13.458 C 157.259 13.458,157.009 13.209,157.009 12.710 C 157.009 12.105,156.760 11.963,155.701 11.963 C 154.787 11.963,154.393 11.794,154.393 11.402 C 154.393 11.093,154.140 10.841,153.832 10.841 C 153.520 10.841,153.271 10.509,153.271 10.093 C 153.271 9.488,153.022 9.346,151.963 9.346 C 151.049 9.346,150.654 9.177,150.654 8.785 C 150.654 8.411,150.280 8.224,149.533 8.224 C 148.785 8.224,148.411 8.037,148.411 7.664 C 148.411 7.272,148.017 7.103,147.103 7.103 C 146.044 7.103,145.794 6.960,145.794 6.355 C 145.794 5.750,145.545 5.607,144.486 5.607 C 143.572 5.607,143.178 5.438,143.178 5.047 C 143.178 4.623,142.721 4.486,141.308 4.486 C 139.960 4.486,139.439 4.341,139.439 3.965 C 139.439 3.245,138.600 2.991,136.231 2.991 C 134.680 2.991,134.206 2.859,134.206 2.430 C 134.206 1.989,133.686 1.869,131.776 1.869 C 129.865 1.869,129.346 1.749,129.346 1.308 C 129.346 0.847,128.681 0.748,125.607 0.748 C 123.364 0.748,121.869 0.598,121.869 0.374 C 121.869 0.127,105.607 0.000,73.832 0.000 L 25.794 0.000 25.794 4.673 M96.584 31.589 C 96.763 32.056,97.830 32.150,102.979 32.150 C 108.223 32.150,109.159 32.234,109.159 32.710 C 109.159 33.152,109.682 33.271,111.624 33.271 C 113.774 33.271,114.114 33.366,114.284 34.019 C 114.446 34.638,114.794 34.766,116.305 34.766 C 117.679 34.766,118.131 34.905,118.131 35.327 C 118.131 35.636,118.383 35.888,118.692 35.888 C 119.000 35.888,119.252 36.122,119.252 36.409 C 119.252 36.980,120.038 37.383,121.152 37.383 C 121.546 37.383,121.869 37.636,121.869 37.944 C 121.869 38.336,122.264 38.505,123.178 38.505 C 124.091 38.505,124.486 38.674,124.486 39.065 C 124.486 39.374,124.738 39.626,125.047 39.626 C 125.355 39.626,125.607 39.884,125.607 40.199 C 125.607 40.514,125.860 40.868,126.168 40.986 C 126.477 41.105,126.729 41.620,126.729 42.131 C 126.729 42.746,126.982 43.127,127.477 43.256 C 127.890 43.364,128.224 43.766,128.224 44.156 C 128.224 44.543,128.477 44.860,128.785 44.860 C 129.154 44.860,129.346 45.229,129.346 45.941 C 129.346 46.558,129.587 47.115,129.907 47.238 C 130.255 47.372,130.467 47.941,130.467 48.743 C 130.467 50.401,130.788 51.215,131.442 51.215 C 131.844 51.215,131.963 51.900,131.963 54.217 C 131.963 56.541,132.089 57.268,132.523 57.435 C 132.916 57.586,133.084 58.198,133.084 59.479 C 133.084 60.856,132.945 61.308,132.523 61.308 C 132.056 61.308,131.963 62.056,131.963 65.794 C 131.963 69.380,131.858 70.280,131.442 70.280 C 130.739 70.280,130.467 71.113,130.467 73.262 C 130.467 74.515,130.297 75.125,129.907 75.275 C 129.579 75.401,129.346 75.961,129.346 76.624 C 129.346 77.382,129.160 77.757,128.785 77.757 C 128.397 77.757,128.224 78.147,128.224 79.022 C 128.224 79.972,128.038 80.335,127.477 80.482 C 126.982 80.612,126.729 80.992,126.729 81.607 C 126.729 82.119,126.477 82.634,126.168 82.752 C 125.840 82.878,125.607 83.438,125.607 84.100 C 125.607 84.816,125.417 85.234,125.090 85.234 C 124.806 85.234,124.485 85.570,124.378 85.981 C 124.270 86.393,123.914 86.729,123.586 86.729 C 123.259 86.729,122.991 86.981,122.991 87.290 C 122.991 87.598,122.738 87.850,122.430 87.850 C 122.121 87.850,121.869 88.103,121.869 88.411 C 121.869 88.720,121.628 88.972,121.334 88.972 C 121.039 88.972,120.691 89.308,120.561 89.720 C 120.430 90.131,120.082 90.467,119.788 90.467 C 119.493 90.467,119.252 90.720,119.252 91.028 C 119.252 91.336,119.000 91.589,118.692 91.589 C 118.383 91.589,118.131 91.841,118.131 92.150 C 118.131 92.458,117.808 92.710,117.414 92.710 C 116.300 92.710,115.514 93.113,115.514 93.685 C 115.514 93.971,115.262 94.206,114.953 94.206 C 114.645 94.206,114.393 94.458,114.393 94.766 C 114.393 95.158,113.998 95.327,113.084 95.327 C 112.188 95.327,111.776 95.499,111.776 95.871 C 111.776 96.196,111.250 96.513,110.467 96.660 C 109.718 96.801,109.159 97.127,109.159 97.425 C 109.159 97.799,108.635 97.944,107.290 97.944 C 105.877 97.944,105.421 98.081,105.421 98.505 C 105.421 98.922,104.981 99.065,103.703 99.065 C 102.300 99.065,101.950 99.202,101.791 99.813 C 101.615 100.486,101.281 100.561,98.461 100.561 C 95.925 100.561,95.327 100.668,95.327 101.121 C 95.327 101.613,92.835 101.682,75.140 101.682 L 54.953 101.682 54.953 100.374 C 54.953 99.460,55.122 99.065,55.514 99.065 C 55.985 99.065,56.075 98.255,56.075 94.019 C 56.075 89.971,56.177 88.972,56.592 88.972 C 57.373 88.972,57.559 87.743,57.565 82.563 C 57.569 78.710,57.674 77.797,58.131 77.622 C 58.589 77.446,58.692 76.525,58.692 72.575 C 58.692 68.625,58.794 67.704,59.252 67.528 C 59.710 67.353,59.813 66.437,59.813 62.532 C 59.813 58.155,59.876 57.710,60.561 57.283 C 61.244 56.856,61.308 56.411,61.308 52.135 C 61.308 48.318,61.412 47.413,61.869 47.238 C 62.333 47.060,62.430 46.059,62.430 41.455 C 62.430 36.756,62.517 35.888,62.991 35.888 C 63.414 35.888,63.551 35.431,63.551 34.019 L 63.551 32.150 76.822 32.150 C 88.370 32.150,90.093 32.077,90.093 31.589 C 90.093 31.135,90.691 31.028,93.231 31.028 C 95.675 31.028,96.416 31.152,96.584 31.589 M101.682 132.523 C 101.682 132.963,102.197 133.084,104.069 133.084 C 106.140 133.084,106.481 133.183,106.650 133.832 C 106.810 134.443,107.160 134.579,108.575 134.579 C 109.767 134.579,110.371 134.754,110.519 135.140 C 110.642 135.460,111.199 135.701,111.816 135.701 C 112.528 135.701,112.897 135.892,112.897 136.262 C 112.897 136.608,113.248 136.822,113.814 136.822 C 114.370 136.822,115.230 137.337,116.001 138.131 C 116.700 138.850,117.465 139.439,117.701 139.439 C 117.938 139.439,118.131 139.607,118.131 139.813 C 118.131 140.019,118.804 140.860,119.626 141.682 C 120.449 142.505,121.290 143.178,121.495 143.178 C 121.701 143.178,121.869 143.435,121.869 143.750 C 121.869 144.065,122.121 144.419,122.430 144.538 C 122.742 144.657,122.991 145.213,122.991 145.791 C 122.991 146.514,123.217 146.888,123.738 147.024 C 124.283 147.167,124.486 147.534,124.486 148.376 C 124.486 149.155,124.669 149.533,125.047 149.533 C 125.470 149.533,125.607 149.990,125.607 151.402 C 125.607 152.814,125.745 153.271,126.168 153.271 C 126.650 153.271,126.729 154.455,126.729 161.682 C 126.729 168.910,126.650 170.093,126.168 170.093 C 125.727 170.093,125.607 170.613,125.607 172.523 C 125.607 174.434,125.488 174.953,125.047 174.953 C 124.659 174.953,124.486 175.343,124.486 176.218 C 124.486 177.168,124.300 177.531,123.738 177.678 C 123.194 177.821,122.991 178.188,122.991 179.030 C 122.991 179.809,122.808 180.187,122.430 180.187 C 122.056 180.187,121.869 180.561,121.869 181.308 C 121.869 182.028,121.679 182.430,121.338 182.430 C 121.046 182.430,120.691 182.958,120.549 183.604 C 120.407 184.250,119.805 185.254,119.211 185.835 C 118.582 186.450,118.131 187.286,118.131 187.838 C 118.131 188.455,117.923 188.785,117.535 188.785 C 117.207 188.785,116.851 189.121,116.744 189.533 C 116.636 189.944,116.316 190.280,116.031 190.280 C 115.747 190.280,115.514 190.533,115.514 190.841 C 115.514 191.150,115.262 191.402,114.953 191.402 C 114.645 191.402,114.393 191.654,114.393 191.963 C 114.393 192.340,114.015 192.523,113.236 192.523 C 112.394 192.523,112.026 192.727,111.884 193.271 C 111.776 193.682,111.534 194.019,111.346 194.019 C 111.157 194.019,110.510 194.523,109.907 195.140 C 109.304 195.757,108.470 196.262,108.053 196.262 C 107.637 196.262,107.086 196.598,106.829 197.009 C 106.480 197.568,105.957 197.757,104.758 197.757 C 103.677 197.757,103.084 197.940,102.939 198.318 C 102.818 198.633,102.262 198.879,101.667 198.879 C 100.939 198.879,100.537 199.111,100.374 199.626 C 100.183 200.227,99.808 200.374,98.468 200.374 C 97.329 200.374,96.731 200.552,96.584 200.935 C 96.433 201.327,95.821 201.495,94.539 201.495 L 92.710 201.495 92.710 199.666 C 92.710 198.385,92.878 197.773,93.271 197.622 C 93.730 197.446,93.832 196.523,93.832 192.560 C 93.832 188.042,93.882 187.698,94.579 187.477 C 95.283 187.253,95.327 186.911,95.327 181.657 C 95.327 176.944,95.414 176.075,95.888 176.075 C 96.359 176.075,96.449 175.265,96.449 171.028 C 96.449 166.980,96.551 165.981,96.966 165.981 C 97.730 165.981,97.933 164.762,97.939 160.133 C 97.943 156.779,98.053 155.926,98.505 155.753 C 98.963 155.577,99.065 154.651,99.065 150.666 C 99.065 146.585,99.156 145.794,99.626 145.794 C 100.665 145.794,100.400 140.455,99.303 139.272 L 98.419 138.318 79.507 138.318 L 60.595 138.318 59.643 139.269 C 58.725 140.187,58.692 140.386,58.692 144.889 C 58.692 148.693,58.588 149.596,58.131 149.771 C 57.673 149.947,57.570 150.865,57.570 154.793 C 57.570 159.217,57.511 159.632,56.822 160.000 C 56.134 160.369,56.075 160.783,56.075 165.247 C 56.075 169.306,55.984 170.093,55.514 170.093 C 55.040 170.093,54.953 170.966,54.953 175.701 C 54.953 180.188,54.851 181.308,54.443 181.308 C 53.803 181.308,53.458 183.667,53.458 188.050 C 53.458 190.613,53.337 191.368,52.897 191.537 C 52.438 191.713,52.336 192.638,52.336 196.624 C 52.336 200.705,52.245 201.495,51.776 201.495 C 51.467 201.495,51.215 201.748,51.215 202.056 C 51.215 202.523,50.467 202.617,46.729 202.617 C 42.395 202.617,40.832 202.117,42.804 201.360 C 43.262 201.184,43.364 200.264,43.364 196.317 C 43.364 191.803,43.413 191.476,44.112 191.294 C 44.818 191.109,44.860 190.784,44.860 185.456 C 44.860 180.689,44.947 179.813,45.421 179.813 C 45.891 179.813,45.981 179.003,45.981 174.766 C 45.981 170.719,46.084 169.720,46.498 169.720 C 47.264 169.720,47.466 168.500,47.472 163.832 C 47.476 160.345,47.572 159.626,48.037 159.626 C 48.508 159.626,48.598 158.816,48.598 154.579 C 48.598 150.343,48.688 149.533,49.159 149.533 C 49.629 149.533,49.720 148.728,49.720 144.530 C 49.720 139.841,49.767 139.514,50.467 139.331 C 51.149 139.153,51.215 138.821,51.215 135.549 L 51.215 131.963 76.449 131.963 C 98.629 131.963,101.682 132.030,101.682 132.523 " stroke="none" fill="#ff5500" fill-rule="evenodd"></path></g></svg>